PathFileType	4	(X/Y/Z)	Kaydara																																																																																																																																																																																																																												
DataRate	CameraRate	NumFrames	NumMarkers	Units	OrigDataRate	OrigDataStartFrame	OrigNumFrames																																																																																																																																																																																																																								
60	60	4	74	mm	60	1643	181																																																																																																																																																																																																																								
Frame#	Time	N_lasi			N_rasi			N_rpsi			N_lpsi			N_fneck			N_bneck			N_fhead			N_rhead			N_lhead			N_rshld			N_relbtop			N_relbext			N_relblow			N_rwrext			N_rwrtop			N_rwrlow			N_lshld			N_lelblow			N_lelbtop			N_lwrext			N_lwrtop			N_lwrlow			N_rtopleg			N_ltopleg			N_rkneefr			N_rkneebk			N_rkneeis			N_lkneefr			N_lknssbk			N_lkneeis			N_rankfr			N_rankis			N_rankbk			N_lankfr			N_lankbk			N_lankis			D_lasi			D_rasi			D_lpsi			D_fneck			D_bneck			D_fhead			D_rhead			D_lhead			D_rshld			D_relbtop			D_relbext			D_relblow			D_rwrext			D_rwrtop			D_rwrlow			D_lshld			D_lelbext			D_lelblow			D_lelbtop			D_lwrext			D_lwrtop			D_lwrlow			D_rtopleg			D_ltopleg			D_rkneefr			D_rkneebk			D_rkneeis			D_lkneefr			D_lknssbk			D_lkneeis			D_rankfr			D_rankis			D_rankbk			D_lankfr			D_lankbk			D_lankis			D_rpsi			N_lelbext		
		X1	Y1	Z1	X2	Y2	Z2	X3	Y3	Z3	X4	Y4	Z4	X5	Y5	Z5	X6	Y6	Z6	X7	Y7	Z7	X8	Y8	Z8	X9	Y9	Z9	X10	Y10	Z10	X11	Y11	Z11	X12	Y12	Z12	X13	Y13	Z13	X14	Y14	Z14	X15	Y15	Z15	X16	Y16	Z16	X17	Y17	Z17	X18	Y18	Z18	X19	Y19	Z19	X20	Y20	Z20	X21	Y21	Z21	X22	Y22	Z22	X23	Y23	Z23	X24	Y24	Z24	X25	Y25	Z25	X26	Y26	Z26	X27	Y27	Z27	X28	Y28	Z28	X29	Y29	Z29	X30	Y30	Z30	X31	Y31	Z31	X32	Y32	Z32	X33	Y33	Z33	X34	Y34	Z34	X35	Y35	Z35	X36	Y36	Z36	X37	Y37	Z37	X38	Y38	Z38	X39	Y39	Z39	X40	Y40	Z40	X41	Y41	Z41	X42	Y42	Z42	X43	Y43	Z43	X44	Y44	Z44	X45	Y45	Z45	X46	Y46	Z46	X47	Y47	Z47	X48	Y48	Z48	X49	Y49	Z49	X50	Y50	Z50	X51	Y51	Z51	X52	Y52	Z52	X53	Y53	Z53	X54	Y54	Z54	X55	Y55	Z55	X56	Y56	Z56	X57	Y57	Z57	X58	Y58	Z58	X59	Y59	Z59	X60	Y60	Z60	X61	Y61	Z61	X62	Y62	Z62	X63	Y63	Z63	X64	Y64	Z64	X65	Y65	Z65	X66	Y66	Z66	X67	Y67	Z67	X68	Y68	Z68	X69	Y69	Z69	X70	Y70	Z70	X71	Y71	Z71	X72	Y72	Z72	X73	Y73	Z73	X74	Y74	Z74
																																																																																																																																																																																																																															
23	27.367	-530.37933	1235.98778	-84.20591	-502.46391	1255.66711	-312.75005	-236.61346	1226.2838	-350.77599	-272.62054	1221.62132	-3.67653	-402.62054	1611.62132	-182.67653	-235.14297	1663.05786	-176.9874	-423.83537	1809.76196	-195.34575	-231.91883	1765.34439	-244.68313	-287.24585	1777.85309	-98.34168	-241.14079	1647.68478	-352.31518	-276.98217	1650.62698	-620.73933	-364.35585	1623.73474	-613.91846	-323.44902	1715.34332	-578.41827	-367.26627	1799.66599	-908.86238	-398.65257	1831.49246	-889.54422	-438.37345	1808.75992	-872.68143	-261.20447	1604.06815	24.8965	-273.89553	1573.07922	278.09803	-288.03066	1491.93314	305.62866	-383.67882	1798.01559	427.02309	-341.16524	1819.08691	430.39131	-332.33231	1817.78442	376.81438	-402.74872	1053.29895	-445.47451	-373.568	1014.26994	45.59886	-430.5843	562.34241	-259.84486	-323.56232	578.35533	-326.81999	-369.20429	564.85157	-166.21443	-381.85879	539.85222	-100.36471	-256.03352	555.86262	-40.62711	-257.04788	547.12788	-190.17429	-296.67368	139.28154	-270.7486	-299.00433	153.95078	-190.86504	-217.0713	141.452	-215.41716	-332.79812	192.75639	-119.10935	-259.956	185.58186	-76.06421	-295.956	164.58186	-160.06421	-457.37991	1038.29872	1740.18204	-416.04465	1056.41075	1454.17938	-257.50072	1130.94521	1746.60965	-434.69673	1564.43802	1597.32941	-298.16523	1590.88852	1605.99075	-448.11417	1794.39072	1601.44821	-298.53317	1717.9808	1525.42816	-307.99749	1717.0993	1679.87183	-352.08611	1490.69412	1402.83417	-258.15887	1164.44397	1326.42685	-319.76192	1160.30884	1368.03421	-311.60961	1214.42551	1277.65587	-398.21083	982.54509	1208.8224	-432.19273	1016.17332	1176.33652	-458.25283	1029.98634	1222.44751	-376.81126	1511.39618	1824.90936	-332.67754	1179.7892	1837.86163	-343.07701	1231.60278	1927.43622	-276.84378	1202.22824	1890.54291	-348.22975	974.47342	1990.67917	-392.38499	981.75423	1989.94781	-404.97028	980.57877	1940.50659	-323.99044	1004.41605	1408.88565	-317.1702	1009.53308	1809.4455	-375.92503	455.46459	1449.6994	-275.74123	490.63412	1423.15628	-284.76053	458.07808	1543.68256	-359.09073	448.32268	1771.09222	-246.69735	485.7383	1787.58911	-317.92774	443.90049	1680.00031	-323.99006	129.99542	1417.76398	-295.26112	126.38041	1482.854	-243.51391	127.86771	1418.31207	-323.54797	134.72565	1792.16522	-250.78136	124.80402	1806.57516	-293.91239	123.96006	1732.99561	-224.67731	1145.66833	1528.54065	-363.87592	1530.31204	282.7356
24	27.383	-530.32547	1235.97015	-84.34937	-502.34642	1255.5381	-312.84889	-236.45493	1226.22932	-350.95352	-272.59502	1221.64803	-3.87435	-402.59502	1611.64803	-182.87435	-235.09165	1662.99774	-177.06717	-423.76476	1809.72565	-195.3821	-231.95007	1765.2063	-244.80749	-287.12696	1777.89795	-98.42698	-241.14019	1647.54471	-352.794	-277.1138	1649.60037	-621.42925	-364.59881	1623.66135	-614.14051	-322.45411	1714.90082	-578.93131	-369.09069	1797.96341	-910.04463	-397.49825	1832.17056	-890.14351	-438.41293	1811.76666	-870.7943	-261.14557	1604.01001	24.8636	-273.53527	1572.78183	278.2374	-286.90895	1491.78513	305.58075	-383.00835	1795.4747	431.09272	-341.21166	1818.04367	432.51339	-334.9155	1816.92764	378.46649	-402.57805	1053.26057	-445.71995	-373.65509	1014.23294	45.51696	-430.55878	562.33978	-259.9682	-323.47618	578.3297	-326.86897	-369.22066	564.84421	-166.3073	-381.91944	539.88693	-100.42346	-256.15095	555.86842	-40.64404	-257.06358	547.13387	-190.17977	-296.61493	139.27206	-270.78074	-299.02016	153.95444	-190.86512	-217.019	141.45476	-215.40482	-332.82761	192.74525	-119.12068	-260.05869	185.59633	-76.0252	-296.05869	164.59633	-160.0252	-457.29015	1038.4938	1740.30563	-415.95432	1056.334	1454.09729	-257.38516	1130.98663	1746.53275	-434.23561	1564.49707	1597.27066	-297.63767	1590.84457	1605.9053	-448.2095	1794.22333	1601.66092	-298.44688	1718.37616	1525.40482	-307.80815	1717.26288	1679.8764	-350.15026	1492.56424	1402.86652	-258.98888	1168.01315	1315.92453	-321.42235	1165.3595	1356.87515	-309.60449	1223.48869	1269.72092	-411.31706	1002.29614	1187.86415	-441.52718	1040.6546	1156.6481	-467.67601	1054.64371	1202.88872	-374.53152	1513.19016	1823.83133	-336.00403	1182.83852	1850.3952	-342.99313	1239.58748	1937.36877	-278.51305	1207.15202	1900.0499	-350.47604	986.1248	2014.53857	-394.29775	994.13696	2014.97726	-408.5807	990.7312	1966.1525	-323.7574	1004.34311	1408.92822	-316.97742	1009.66331	1809.59137	-375.61176	455.52654	1449.72946	-275.5088	490.63339	1423.24417	-284.56522	458.04913	1543.77213	-358.93833	448.35926	1771.22742	-246.562	485.73093	1787.63321	-317.80592	443.94653	1680.05661	-323.92059	130.03298	1417.8537	-295.24134	126.38118	1482.90405	-243.6413	127.8267	1418.55499	-323.48228	134.87785	1792.24884	-250.786	124.8011	1806.56982	-293.90659	123.98211	1733.06091	-224.84545	1145.67863	1528.6438	-362.98721	1529.72214	283.06839
25	27.4	-530.29369	1235.89821	-84.56089	-502.28016	1255.45082	-312.95134	-236.33745	1226.17455	-351.17191	-272.51631	1221.7144	-4.02093	-402.51631	1611.7144	-183.02093	-235.05026	1662.94235	-177.19654	-423.69499	1809.77188	-195.50053	-231.88105	1765.16449	-244.93044	-287.12475	1777.92877	-98.54482	-241.24916	1647.47757	-353.3062	-277.29982	1648.63297	-622.08565	-364.84226	1623.64014	-614.34589	-321.376	1714.45526	-579.52263	-371.58161	1796.55624	-911.25656	-396.49097	1833.08701	-890.70351	-437.90657	1815.61462	-868.84407	-261.1581	1603.98331	24.75613	-272.65375	1572.73636	278.26841	-285.51201	1491.58661	305.36528	-382.37183	1792.79022	435.54657	-341.22044	1816.82159	434.54437	-338.20213	1815.87021	380.3109	-402.47978	1053.23242	-445.89828	-373.6591	1014.22089	45.39364	-430.52204	562.35302	-260.07483	-323.39241	578.32691	-326.93901	-369.20254	564.81373	-166.40263	-382.00054	539.90509	-100.52283	-256.32374	555.88833	-40.64435	-257.07567	547.13966	-190.20033	-296.60833	139.25387	-270.79683	-299.02275	153.96305	-190.91011	-217.03503	141.44917	-215.39631	-332.8677	192.75066	-119.20538	-260.11496	185.65031	-76.0264	-296.11496	164.65031	-160.0264	-456.57799	1038.31451	1740.00427	-415.88078	1056.19377	1454.10461	-257.14613	1131.01242	1746.4859	-433.66135	1564.56116	1597.19696	-296.7367	1590.905	1605.4541	-448.25485	1794.01764	1601.88873	-298.35463	1718.78464	1525.35614	-307.52998	1717.43912	1679.78424	-348.12229	1494.4281	1402.67181	-260.68127	1172.23305	1304.85184	-324.60018	1171.49696	1345.07401	-308.11514	1233.17223	1262.02316	-425.36388	1025.35294	1167.54471	-450.65067	1067.98561	1137.41875	-476.87366	1082.15118	1183.70056	-372.17075	1515.0502	1822.73727	-339.81071	1186.49796	1864.00986	-342.77153	1248.61786	1947.84729	-280.30235	1212.50336	1910.27542	-352.23946	999.86893	2039.94156	-395.43888	1008.9772	2041.64703	-412.47025	1003.39066	1993.90335	-323.61351	1004.24416	1408.9473	-316.77914	1009.78142	1809.74487	-375.45277	455.47855	1449.83475	-275.33422	490.59891	1423.35007	-284.41662	458.00892	1543.76389	-358.76759	448.41171	1771.34979	-246.3843	485.72948	1787.66739	-317.64587	443.9999	1680.1149	-323.86673	130.04644	1417.88269	-295.17727	126.3546	1482.854	-243.57502	127.79098	1418.54446	-323.44414	134.89272	1792.29477	-250.72905	124.83421	1806.65558	-293.88401	123.99801	1733.05252	-224.89664	1145.66284	1528.59909	-361.93516	1528.99414	283.49079
26	27.417	-530.31746	1235.85167	-84.7637	-502.21577	1255.41336	-313.12531	-236.22677	1226.17882	-351.37989	-272.46964	1221.77628	-4.23701	-402.46964	1611.77628	-183.23701	-234.92504	1662.98019	-177.37827	-423.6639	1809.8114	-195.61474	-231.80866	1765.06897	-245.06855	-287.09133	1777.95563	-98.66808	-241.19062	1647.36908	-353.93314	-277.47137	1647.63168	-622.86385	-365.06218	1623.95569	-614.58374	-319.95838	1714.08096	-580.11696	-374.73274	1795.74677	-912.06909	-395.59055	1834.40598	-891.08994	-436.18004	1820.52322	-867.21191	-261.19837	1604.00055	24.57971	-271.78024	1572.56256	278.20309	-284.15485	1491.2114	305.12695	-381.28201	1789.95514	440.58647	-341.08959	1815.67276	436.66809	-342.38335	1814.61777	382.31869	-402.39388	1053.19374	-445.9795	-373.6142	1014.216	45.28045	-430.49744	562.36153	-260.13697	-323.3403	578.30933	-326.99028	-369.21806	564.84535	-166.47146	-382.09526	539.95312	-100.60068	-256.36585	555.89863	-40.71332	-257.11254	547.13055	-190.23603	-296.58352	139.26588	-270.81436	-299.00944	153.94971	-190.93739	-216.99244	141.46698	-215.41655	-332.89284	192.7486	-119.23574	-260.20437	185.63732	-76.01068	-296.20437	164.63732	-160.01068	-455.98682	1038.27293	1739.74106	-415.85812	1056.09901	1454.09561	-256.90853	1131.06056	1746.41907	-432.91649	1564.59412	1597.05475	-295.87849	1590.77286	1605.01343	-448.19912	1793.85376	1602.16339	-298.23627	1719.35303	1525.15778	-307.12189	1717.53632	1679.75739	-346.14189	1496.4537	1402.61948	-263.18182	1176.94176	1292.71881	-327.32319	1178.00278	1332.28622	-307.12383	1243.37021	1254.04251	-439.00543	1051.29311	1147.40173	-459.08321	1097.95815	1118.91762	-485.4052	1112.23557	1165.30563	-369.36211	1516.68152	1822.10663	-344.67628	1191.6494	1879.29123	-342.45697	1258.70934	1957.91168	-282.19324	1218.60451	1921.04294	-353.62736	1015.69702	2065.77072	-396.57429	1026.48903	2068.92654	-414.7773	1018.03879	2023.72955	-323.54557	1004.16138	1408.90869	-316.61224	1009.85657	1809.78729	-375.17136	455.45528	1449.80011	-275.14349	490.58132	1423.36456	-284.0447	457.94781	1543.88947	-358.54294	448.44296	1771.48224	-246.14735	485.74627	1787.68173	-317.50055	444.01604	1680.1091	-323.83904	130.05087	1417.90192	-295.18789	126.33796	1482.8508	-243.56195	127.7451	1418.52814	-323.46199	134.83052	1792.33459	-250.68018	124.85158	1806.73401	-293.86576	124.00662	1733.10242	-224.88735	1145.54626	1528.53928	-360.9594	1528.16483	283.67987
